<?xml version="1.0" standalone="no"?>
<!DOCTYPE svg PUBLIC "-//W3C//DTD SVG 20010904//EN"
 "http://www.w3.org/TR/2001/REC-SVG-20010904/DTD/svg10.dtd">
<svg version="1.0" xmlns="http://www.w3.org/2000/svg"
 width="1954.000000pt" height="2050.000000pt" viewBox="0 0 1954.000000 2050.000000"
 preserveAspectRatio="xMidYMid meet">

<g transform="translate(0.000000,2050.000000) scale(0.100000,-0.100000)"
fill="#000000" stroke="none">
<path d="M14555 20490 c-1202 -98 -2448 -639 -3578 -1553 -385 -311 -826 -741
-1162 -1132 -322 -375 -671 -856 -919 -1268 l-89 -148 -57 108 c-349 670
-1158 1287 -2096 1598 -267 89 -604 165 -894 201 -172 21 -607 30 -740 15
-803 -91 -1797 -570 -2591 -1248 -153 -130 -465 -439 -602 -593 -785 -889
-1315 -1964 -1600 -3245 -271 -1216 -300 -2679 -76 -3900 387 -2117 1499
-3857 3473 -5434 643 -513 1258 -934 2538 -1737 1009 -633 1362 -869 1733
-1158 360 -280 593 -509 797 -786 116 -157 184 -200 317 -200 124 1 211 76
271 235 77 203 97 249 167 390 381 765 1097 1584 2498 2855 250 227 497 448
1070 955 622 550 1030 916 1355 1215 1273 1169 2221 2175 2958 3139 1262 1650
1977 3289 2161 4956 38 341 46 494 46 905 -1 412 -9 584 -46 915 -147 1328
-617 2465 -1383 3350 -127 146 -405 421 -541 534 -688 571 -1466 918 -2280
1017 -154 18 -574 26 -730 14z m-199 -1385 c799 -84 1436 -460 1921 -1135 372
-517 651 -1273 762 -2070 192 -1378 -14 -2699 -645 -4130 -89 -203 -329 -682
-445 -890 -637 -1141 -1495 -2289 -2774 -3710 -368 -410 -663 -726 -1500
-1610 -880 -929 -1230 -1311 -1580 -1720 -669 -781 -1063 -1371 -1259 -1886
l-31 -82 -49 83 c-108 186 -311 424 -556 654 -294 277 -502 451 -1315 1102
-1016 813 -1378 1120 -1890 1600 -222 208 -590 577 -765 769 -1310 1431 -2028
2885 -2204 4460 -53 472 -53 1075 0 1700 163 1937 833 3444 1914 4308 314 250
721 467 1066 567 317 92 600 112 974 70 855 -97 1556 -557 1990 -1305 103
-178 187 -386 240 -600 62 -250 138 -391 284 -528 119 -111 252 -155 369 -122
137 38 252 201 323 457 86 313 160 499 299 753 529 969 1393 1922 2280 2517
219 146 551 331 770 428 410 182 862 299 1265 328 132 10 426 5 556 -8z"/>
</g>
</svg>
