<?xml version="1.0" standalone="no"?>
<!DOCTYPE svg PUBLIC "-//W3C//DTD SVG 20010904//EN"
 "http://www.w3.org/TR/2001/REC-SVG-20010904/DTD/svg10.dtd">
<svg version="1.0" xmlns="http://www.w3.org/2000/svg"
 width="512.000000pt" height="512.000000pt" viewBox="0 0 512.000000 512.000000"
 preserveAspectRatio="xMidYMid meet">

<g transform="translate(0.000000,512.000000) scale(0.100000,-0.100000)"
fill="#000000" stroke="none">
<path d="M2480 4988 c-42 -23 -50 -34 -125 -180 -83 -162 -103 -191 -145 -213
-14 -7 -90 -23 -170 -34 -201 -30 -197 -29 -237 -64 -61 -54 -78 -122 -48
-195 9 -22 67 -89 140 -162 158 -159 156 -154 121 -353 -14 -81 -26 -164 -26
-183 0 -106 107 -192 208 -165 20 6 98 43 172 82 185 99 196 99 380 1 74 -40
152 -77 172 -83 101 -27 208 59 208 165 0 20 -11 100 -25 178 -36 205 -40 195
120 358 144 148 162 178 150 257 -8 53 -60 117 -108 132 -18 5 -99 20 -182 31
-82 12 -161 28 -175 35 -43 22 -65 55 -144 212 -63 125 -83 156 -113 174 -53
33 -118 36 -173 7z"/>
<path d="M2010 2977 c-19 -6 -60 -36 -92 -67 -95 -93 -88 24 -88 -1452 l0
-1288 730 0 730 0 0 1288 c0 1476 7 1359 -88 1452 -36 35 -72 60 -98 68 -55
16 -1042 15 -1094 -1z"/>
<path d="M3410 1320 l0 -1150 603 0 c509 0 611 2 654 15 68 20 143 88 174 157
l24 53 3 880 c2 532 -1 904 -7 942 -5 34 -17 77 -26 97 -24 50 -81 105 -134
130 -45 21 -59 21 -668 24 l-623 3 0 -1151z"/>
<path d="M434 1924 c-60 -21 -119 -77 -151 -142 l-28 -57 0 -665 0 -665 24
-53 c31 -69 106 -137 174 -157 43 -13 145 -15 654 -15 l603 0 0 885 0 885
-617 -1 c-515 0 -625 -3 -659 -15z"/>
</g>
</svg>
