<?xml version="1.0" standalone="no"?>
<!DOCTYPE svg PUBLIC "-//W3C//DTD SVG 20010904//EN"
 "http://www.w3.org/TR/2001/REC-SVG-20010904/DTD/svg10.dtd">
<svg version="1.0" xmlns="http://www.w3.org/2000/svg"
 width="512.000000pt" height="512.000000pt" viewBox="0 0 512.000000 512.000000"
 preserveAspectRatio="xMidYMid meet">

<g transform="translate(0.000000,512.000000) scale(0.100000,-0.100000)"
fill="#000000" stroke="none">
<path d="M2460 4768 c-56 -117 -103 -214 -104 -215 -1 -1 -107 -18 -235 -37
-128 -19 -235 -36 -237 -39 -3 -2 72 -79 166 -170 l171 -165 -40 -233 c-22
-128 -39 -235 -36 -237 2 -2 98 46 213 107 l210 110 208 -109 c115 -60 212
-110 215 -110 3 0 -12 107 -35 237 l-40 237 174 167 174 167 -34 6 c-19 4
-127 20 -239 36 -113 17 -205 31 -207 33 -1 1 -50 98 -108 215 -58 116 -108
212 -109 212 -2 0 -50 -96 -107 -212z"/>
<path d="M4265 4013 l-110 -218 -239 -34 -239 -35 175 -168 175 -167 -38 -223
c-21 -123 -39 -230 -39 -239 0 -12 54 12 207 92 114 60 212 109 218 109 5 0
102 -49 215 -108 113 -59 206 -103 208 -97 1 5 -16 111 -38 235 l-39 225 171
167 c95 92 170 169 167 172 -2 2 -110 20 -239 39 -167 24 -235 38 -239 48 -2
8 -50 105 -105 217 l-101 202 -110 -217z"/>
<path d="M624 3508 c-58 -117 -108 -215 -109 -216 -2 -2 -108 -19 -236 -38
-128 -19 -235 -36 -236 -38 -2 -2 74 -78 168 -169 l172 -165 -40 -236 c-22
-130 -37 -236 -33 -236 3 0 101 49 215 109 l209 110 31 -18 c59 -36 386 -203
390 -200 2 2 -15 109 -37 237 l-40 232 172 167 c94 91 169 167 167 169 -2 2
-108 20 -237 39 -128 18 -234 35 -235 37 -2 2 -51 99 -109 216 l-106 213 -106
-213z"/>
<path d="M1802 1793 l3 -1658 755 0 755 0 3 1658 2 1657 -760 0 -760 0 2
-1657z"/>
<path d="M3610 1410 l0 -1280 755 0 755 0 0 1280 0 1280 -755 0 -755 0 0
-1280z"/>
<path d="M0 1150 l0 -1020 755 0 755 0 0 1020 0 1020 -755 0 -755 0 0 -1020z"/>
</g>
</svg>
